/* XPM */
static char *ce25823a6e894764afa5b67f3a7e5b4b[] = {
/* columns rows colors chars-per-pixel */
"32 32 196 2 ",
"   c None",
".  c #2A3422",
"X  c #303729",
"o  c #323D29",
"O  c #313E25",
"+  c #2A461F",
"@  c #364926",
"#  c #36422B",
"$  c #39442E",
"%  c #3B4B2D",
"&  c #394D27",
"*  c #3B5B26",
"=  c #3D532A",
"-  c #3E5928",
";  c #41562F",
":  c #425B2D",
">  c #435433",
",  c #465C32",
"<  c #495E37",
"1  c #426626",
"2  c #45642B",
"3  c #48632F",
"4  c #4A6A2E",
"5  c #456A2F",
"6  c #4C752B",
"7  c #527C2E",
"8  c #476131",
"9  c #4A6434",
"0  c #4D6C33",
"q  c #4D6439",
"w  c #506D37",
"e  c #526D3A",
"r  c #4F7331",
"t  c #527534",
"y  c #567C34",
"u  c #57753C",
"i  c #597D3A",
"p  c #577B39",
"a  c #5A6C45",
"s  c #597541",
"d  c #5F7E42",
"f  c #677E4D",
"g  c #138714",
"h  c #19971A",
"j  c #1C9A1D",
"k  c #139214",
"l  c #238521",
"z  c #379D27",
"x  c #36992B",
"c  c #3F8A3A",
"v  c #3B9D3D",
"b  c #2AA72C",
"n  c #3EA23E",
"m  c #37B239",
"M  c #478429",
"N  c #4C8E3F",
"B  c #558334",
"V  c #5A8535",
"C  c #5C8935",
"Z  c #5C823B",
"A  c #628C3D",
"S  c #619436",
"D  c #649937",
"F  c #64943A",
"G  c #65983A",
"H  c #699C3E",
"J  c #46AB3E",
"K  c #6DA23E",
"L  c #73AD3F",
"P  c #74B33E",
"I  c #3FA540",
"U  c #3FA941",
"Y  c #3EBA40",
"T  c #658C42",
"R  c #6A874E",
"E  c #679044",
"W  c #6A9344",
"Q  c #6D9C42",
"!  c #6D944A",
"~  c #729D47",
"^  c #71974F",
"/  c #729F4A",
"(  c #769456",
")  c #789756",
"_  c #7B9B58",
"`  c #4CA741",
"'  c #41AB42",
"]  c #4AAB42",
"[  c #57AD44",
"{  c #5EAF4A",
"}  c #45B445",
"|  c #4CB145",
" . c #42BD44",
".. c #46BC49",
"X. c #5CB347",
"o. c #5DB648",
"O. c #54BB49",
"+. c #5ABF4B",
"@. c #6FA242",
"#. c #6CA348",
"$. c #72A644",
"%. c #74AA44",
"&. c #76A04F",
"*. c #78A54F",
"=. c #79AC4B",
"-. c #75AA48",
";. c #63BC4B",
":. c #6BB84A",
">. c #76B143",
",. c #78B344",
"<. c #7CB945",
"1. c #7DB34C",
"2. c #7DB84A",
"3. c #7DA058",
"4. c #7DA157",
"5. c #45C047",
"6. c #4CC44C",
"7. c #4ECC4F",
"8. c #47C249",
"9. c #55C54D",
"0. c #5EC44E",
"q. c #54CA4F",
"w. c #5CC84E",
"e. c #4FD14F",
"r. c #4ECF50",
"t. c #56CE50",
"y. c #5BCD51",
"u. c #4ED151",
"i. c #52D452",
"p. c #5ED554",
"a. c #53DD55",
"s. c #5ADE56",
"d. c #6AC54E",
"f. c #62C94F",
"g. c #64C14D",
"h. c #73C54F",
"j. c #6ACB51",
"k. c #74C650",
"l. c #75CC52",
"z. c #7ACA52",
"x. c #7AC550",
"c. c #63D253",
"v. c #6BD354",
"b. c #75D355",
"n. c #7CD255",
"m. c #77D857",
"M. c #7BDA58",
"N. c #55E257",
"B. c #56E558",
"V. c #58E659",
"C. c #82BC4C",
"Z. c #84AC5B",
"A. c #80AE53",
"S. c #85BA52",
"D. c #85B35A",
"F. c #8EBE60",
"G. c #81C245",
"H. c #84C24B",
"J. c #88C64E",
"K. c #86C948",
"L. c #8BCC4D",
"P. c #8FD34E",
"I. c #91D44F",
"U. c #94DC4F",
"Y. c #8BC553",
"T. c #83CE54",
"R. c #8BCB51",
"E. c #91CD56",
"W. c #92CD5A",
"Q. c #82D356",
"!. c #8AD658",
"~. c #8EDA59",
"^. c #88D759",
"/. c #93D552",
"(. c #98D756",
"). c #96DB52",
"_. c #95D559",
"`. c #9AD55D",
"'. c #94DD5B",
"]. c #9ADB5B",
"[. c #9ADD55",
"{. c #8AE05B",
"}. c #9BE255",
"|. c #96E55E",
" X c #9CE35E",
".X c #9BE85F",
"XX c #A1E35E",
"oX c #93C465",
"OX c #9BD464",
"+X c #A1DD62",
"@X c #9DE860",
"#X c #A1E560",
"$X c #A6EC62",
"%X c #A9E962",
"&X c #A4E168",
"*X c #B3F865",
/* pixels */
"                        B.V.B.B.N.a.a.i.                        ",
"                  B.B.N.c.v.b.n.n.l.j.w.q.7.7.                  ",
"                V.p.b.'.XX$X$X$X$X$X$XXX'.l.9.q.                ",
"            B.s.b. X$X$X$X$X$X$X$XXX$X$X$X$X.Xz.i.a.            ",
"          N.p.~.$X$X$X&X+X%XE.Y.R.`.`.(. X$X$X$X~.c.N.          ",
"        N.c. X$X$X].D.^ =.}.<.,.E &.S.OX(.).$X%X$X Xv.a.        ",
"      a.p.].$X$X XQ u e @.XXH.,.C 0 E S.XXXX`.XX$X$X Xc.i.      ",
"      t.~.$X$X$XA.u > 9 1.XXL.<.Q p p F `.].G.XX$X$X$X'.q.      ",
"    i.l.$X$X$XXXT > % 9 F K.I.K.H Z t W ! %X*X%X$X$X$X$Xl.6.    ",
"  i.9. X$X$X$XE.q o # 0 P ).}.U.,.A y A F ~ ].XX#X$X$X$X@XO...  ",
"  t.d.{.{.{..X=.% o # B L.}.}.[.I.L i 3 y y %.<._.@X{.{.{.h.}   ",
"  6.l.t.8.5.c.#.# X & F P.}.}.[.).L.S : , t C K R.c.8.8.7.Q.]   ",
"7.+.#Xv. .k  .N o X & K L./.).).).L.,.4 > r C D ;.Y h  .b.#X[ U ",
"r.d.$X@Xy.b h c o . : $.H.L.I.I.I.I.P V = t B %.J h m c.@X$X:.I ",
"u.l.$X$X{.q.j l X @ t 2.J.R./././.I.I.,.p 0 p %.z b t.|.$X$Xx.n ",
"i.n.$X$X$XM.8.g + 2 p ^ D.oXOX]./.`.F.R 9 9 S F x 8.{.$X$X$XT.n ",
"a.n.$X$X$X#Xc.Y M Z A Z e q s *.J.$.u w u 4 $.G | M.$X$X$X$XQ.' ",
"N.n.$X$X$X$X@Xy.f.1.4._ _ ) ) 4.Z.Z.( f a q < 5 ;.#X$X$X$X$XQ...",
"a.l.$X$X$X$X$X{.9.B o # # # # $ # # o # # % ; M |.$X$X%X$X$Xl...",
"r.y.$X$X$X$X$X$Xm.O.- # o # # # 9 ; # # # # 2 J.$X$X$X$X$X%Xf.} ",
"  9.'.$X$X$X$X$X@Xc.{ : O o o 2 D G & O @ 7 %.XX$X$X$X$X$X.XO.  ",
"  6.l.$X$X$X$X$X$X@Xw.1.~ w 0 -.I. X=.A C./.].$X$X$X$X$X$XQ.'   ",
"  ..O.#X$X$X$X$X$X$X^.#.,.,.K F C.J.P C.U./.$X$X$X$X$X$X#Xo.n   ",
"    } z.$X$X$X$X$X_.E w -.1.2.C.Y.`.(./.H.Y.%X$X$X$X$X$XQ.n     ",
"    ' ` '.$X$X$X$XA : , E -.Q W &.=.<.G.C i E.$X$X$X%X].` v     ",
"      ' [ XX$X$X%XA , % e ! $.F H P L.S B - F XX$X$X@XX.v       ",
"        v :.#X$X$XS.: : = e ! =.C.L.K r 2 1 Q $X$XXXg.J         ",
"          ' O. X$XXXE 0 0 9 , e f B 4 0 1 6 C.$X.Xg.'           ",
"            } O.Q.#X@X*.i e 9 2 1 y 7 4 B K ].^.O.'             ",
"              } 6.0.Q.@X].].(.(.(.(.].(._.T.0.} n               ",
"                  } } | ;.k.Q.!.!.Q.l.;.O.} '                   ",
"                        v v v v n I ' I                         "
};
