/* XPM */
static char *_da44138674e47739d398dbb87e56920[] = {
/* columns rows colors chars-per-pixel */
"64 64 237 2 ",
"   c None",
".  c #28381C",
"X  c #2C3424",
"o  c #2E3925",
"O  c #323E26",
"+  c #333C2A",
"@  c #1A4F15",
"#  c #2D461A",
"$  c #31471F",
"%  c #37571F",
"&  c #0B6907",
"*  c #087A06",
"=  c #15750D",
"-  c #18770E",
";  c #1D7C11",
":  c #1A7610",
">  c #237C15",
",  c #2B7D1A",
"<  c #207613",
"1  c #3B601F",
"2  c #36412C",
"3  c #39462D",
"4  c #3A4C2A",
"5  c #344725",
"6  c #3D5B24",
"7  c #3E522B",
"8  c #3C5725",
"9  c #3E4C32",
"0  c #374829",
"q  c #3E6322",
"w  c #435C2D",
"e  c #40572C",
"r  c #425432",
"t  c #455C32",
"y  c #495C39",
"u  c #404F33",
"i  c #45632C",
"p  c #4A6B2E",
"a  c #446827",
"s  c #4B732B",
"d  c #487725",
"f  c #517D2E",
"g  c #4A6433",
"h  c #4D6C34",
"j  c #4C6537",
"k  c #526D3C",
"l  c #506A38",
"z  c #4B7433",
"x  c #517335",
"c  c #547B33",
"v  c #55743A",
"b  c #5A7C3C",
"n  c #58793A",
"m  c #576C44",
"M  c #5E7B44",
"N  c #63784E",
"B  c #677953",
"V  c #078608",
"C  c #189519",
"Z  c #158712",
"A  c #248115",
"S  c #2B831A",
"D  c #2D881B",
"F  c #32851D",
"G  c #338C1E",
"H  c #368D20",
"J  c #3B8D23",
"K  c #398622",
"L  c #3D9224",
"P  c #379020",
"I  c #358D36",
"U  c #399539",
"Y  c #3B9C3C",
"T  c #379338",
"R  c #209321",
"E  c #28A62A",
"W  c #3EA33E",
"Q  c #30AD32",
"!  c #3AB63C",
"~  c #1E9D20",
"^  c #468B25",
"/  c #57882E",
"(  c #429427",
")  c #459329",
"_  c #46992A",
"`  c #4C9B2D",
"'  c #4A952C",
"]  c #559A2E",
"[  c #5A8436",
"{  c #5B8B34",
"}  c #5C843B",
"|  c #5F8C3A",
" . c #568232",
".. c #489A3C",
"X. c #539D32",
"o. c #5D9336",
"O. c #428A3A",
"+. c #628D3D",
"@. c #60853E",
"#. c #65943C",
"$. c #649938",
"%. c #49A13F",
"&. c #55A332",
"*. c #5BA436",
"=. c #5BAA36",
"-. c #5FAB38",
";. c #4FA22F",
":. c #62AC3A",
">. c #6AA539",
",. c #72AD3D",
"<. c #70A73E",
"1. c #65B13C",
"2. c #69B33E",
"3. c #75B43D",
"4. c #78BB3D",
"5. c #7DC33F",
"6. c #3FA640",
"7. c #3FA941",
"8. c #3FBC42",
"9. c #5C8C40",
"0. c #618344",
"q. c #648B42",
"w. c #688849",
"e. c #6B9444",
"r. c #6D9B44",
"t. c #6A9643",
"y. c #729C4A",
"u. c #718A57",
"i. c #41AC42",
"p. c #4BAB43",
"a. c #49A540",
"s. c #54AD45",
"d. c #5AAB44",
"f. c #44B445",
"g. c #4AB245",
"h. c #45BB46",
"j. c #47BC49",
"k. c #4BBD49",
"l. c #48B947",
"z. c #5AB246",
"x. c #53BA49",
"c. c #5ABA4A",
"v. c #58B547",
"b. c #6EA341",
"n. c #63AB46",
"m. c #72A444",
"M. c #74AD43",
"N. c #74A24A",
"B. c #76AB48",
"V. c #79AC4B",
"C. c #79AE47",
"Z. c #6DB542",
"A. c #63B549",
"S. c #6CBC4B",
"D. c #69B547",
"F. c #7AB445",
"G. c #74BC45",
"H. c #7CBC46",
"J. c #7DB44B",
"K. c #73BC4C",
"L. c #77B645",
"P. c #7AA652",
"I. c #77B550",
"U. c #7A8F60",
"Y. c #4BC54D",
"T. c #4DCB4E",
"R. c #47C34A",
"E. c #52C34C",
"W. c #51CA4F",
"Q. c #4ECE50",
"!. c #56CB50",
"~. c #5ACD51",
"^. c #4FD251",
"/. c #50D552",
"(. c #53DC55",
"). c #4FD14F",
"_. c #6DC24D",
"`. c #73C34E",
"'. c #7BC34A",
"]. c #7CC346",
"[. c #7BC851",
"{. c #68D254",
"}. c #78D857",
"|. c #63CB55",
" X c #57E559",
".X c #59EC5B",
"XX c #56E357",
"oX c #5BF15D",
"OX c #82BC4C",
"+X c #80B94B",
"@X c #83B354",
"#X c #89BE55",
"$X c #8BBC5B",
"%X c #85B856",
"&X c #84AE5D",
"*X c #859D67",
"=X c #8DAD6A",
"-X c #84C34C",
";X c #84CA4D",
":X c #8BCC4D",
">X c #85C747",
",X c #8ED24D",
"<X c #89D047",
"1X c #91D54E",
"2X c #92DA4E",
"3X c #8AC254",
"4X c #84CB52",
"5X c #8CCC52",
"6X c #8DC559",
"7X c #92CD5B",
"8X c #92CE56",
"9X c #8CD253",
"0X c #86DA59",
"qX c #92D553",
"wX c #95DA54",
"eX c #99DE55",
"rX c #94D459",
"tX c #9BD65D",
"yX c #96DB59",
"uX c #9ADD5B",
"iX c #9BE254",
"pX c #93E45E",
"aX c #9DE35D",
"sX c #92E458",
"dX c #A1E55E",
"fX c #A2E859",
"gX c #98C569",
"hX c #9ED767",
"jX c #9ECC73",
"kX c #A4D96C",
"lX c #9EE860",
"zX c #A3E562",
"xX c #A6EB62",
"cX c #AAE866",
"vX c #B7FA69",
"bX c #B2F16A",
"nX c #A2DF5D",
/* pixels */
"                                                      ^.(.(.(.(.(.^.(./.T.                                                      ",
"                                              (. X.X.XoXoX.X.X.XXX.X X XXX(.(.(.Q.                                              ",
"                                        (..XoXoX.X X(.W.E.x.x.x.x.v.x.k.R.Y.)./.(.(.(.Q.                                        ",
"                                    XX.XoX.X(.E.c.S.[.4X'.9X4X2.1.1.yXyX4X'.A.z.g.R.T.^./.T.                                    ",
"                                XX.XoX.XW.c.`.[.2.;XxXG.= Z.'.= ( > iX[.A S =.zXyX`.s.g.Y.^.^.Q.                                ",
"                            (..XoX XE.A.'.yXxX].= ].xXaXA ;XwX; X.].zXL *.:.1.aX( D ].9XA.p.T.^./.T.                            ",
"                          XX.X.XW.c.9X'.> 2.xXxXH -.xXaXA &.;X* = ;XwX= 1.pXaX=.D =.G zX'.4XA.k./.(.^.                          ",
"                         XoXXXx.4X2.X.yXL =.xXzX( P aXaX_ =.aX; 2.:.qXA ;X,XaXA ` :.G dX_ S qX4Xv.^. XXX                        ",
"                      .XoX/.A.uXyXL G dX1.= yXyX].A :.^ G F :.: , < 4XP ( S 9X> [.D L 2XA G.pX_ `.S.!..X X                      ",
"                  /. X.XY.K.1.( ].yXZ :.wXA Z.K &.> L :.;X9XdXuXwXyXaXwX=.] yXS ` A ;X1.- wXwX; G 5X`.Y..X.XY.                  ",
"                /. X.Xx.[.=.A ( A aX` G aXL ; ` ;XaXcXxXcXuXuXqXuXtXlXzXnXuXdX>X_ Z.9XG -.aXP & G ( _ -XE..X.XR.                ",
"                 X.Xk.4XaX-.; ` = &.9X; ) G.qXzXkXhXzXcXdX5X3XOX%X6X6X6XtXtXqXtXaXxX].> G.'.; D L > 2.zX9XE..XXX                ",
"               X XY.4XxXxXxX_ * &.= ;X*.9XzX7X$XP.P.3XeX1XOX+X+XN.P.I.V.6X7XkX:X<XeXfXuX5X> _ S = G xXxXxX9XE..X(.              ",
"            (. X!.K.xXxXxXxXqXD ( S wXxXdX@XN.0.0.q.M.iXeXH.F.,.{ x w.P.r.7XtXbXdX,X1XcXxX9X2.A : 9XxXxXxXxX[.E.XXQ.            ",
"          /. X/.A.zXxXxXxXxXxX:.D '.xXdXV.q.N k v c H.dXnX+XF.F.b.s i m r.r.6XuXcXxXfXtXzXxXzX;._ fXxXxXxXxXzXK.T.(.j.          ",
"          XX(.g.uXxXxXxXxXxXxXuXaXxXxX+X0.0.y j g  .H.dXdXOXH.F.b.+.p g M #.P.8XfXbXnXOXqXxXxXdXyXxXxXxXxXxXxXaXz./.^.          ",
"        /.(.k.4XxXxXxXxXxXxXxXxXxXxXuXt.M y r 7 i t.7XcXcX5X>X3.C.#.+.h h #.f $XbXfX:XC.>XdXxXxXxXxXxXxXxXxXxXxXyXg.!.R.        ",
"        (./.n.xXxXxXxXxXxXxXxXxXxXxX5X0.k 9 9 7 k q.B.-XqX:X:X4.<.#.#.c @.v <.s gXfXiXfXbXuXfXxXxXxXxXxXxXxXxXxXxXS.R.T.        ",
"      /./.g.qXxXxXxXxXxXcXxXxXxXxXxXB.l 9 3 3 r p f $.5.,X2X2X2X$.+.@.c p x y.3.v cXvXvXvXxXdXxXxXcXxXxXxXxXxXxXxXtXp.Y.j.      ",
"      (.Q.A.xXxXxXxXxXxXxXxXxXxXxXhX0.t 9 + 2 4 p { 4.1XeX2X2XeX>X+.+.#.c b @.#Xs u.bXvXcXcXtXxXxXxXxXxXxXxXxXxXxXxXS.f.Y.      ",
"    ^.^.i.9XxXxXxXxXxXxXxXxXxXxXfX%Xl u 2 + 2 7 c >.:XeX2XeX2XeXeX3.@.#.@.i b #.$.p <.8X5XrXrXxXxXxXxXxXxXxXxXxXxXxXyXa.j.f.    ",
"    ^.Q.d.zXxXxXxXlXlXzXlXlXxXxXxXN.t + 2 + + w c F.2XiXfXfXiXeXeX2X3.+.+.h g h #.p @.+X,.H.#XdXxXxXlXxXlXxXzXxXxXxXxXn.i.h.    ",
"    ^.j.[.xXxXxXlX~.!.!.!.!./.0XxXr.r o + + O p { >XwXfXiXiXiXiX2XwX1X,.h h e l s s x #.<.H.J.aXzX{.~.W.!.!.!.}.xXxXxX4Xa.f.    ",
"  Q.^.a.uXxXxXxXlXW.Y.Q.Y.Y.R.!.pXe.u X + X O z #.>XqXeXiXiXeXiXeX2X<X>X$.p e e w @.p { [ ,.F.aX}.T.Y.Y.T.Y.T.{.xXxXxXaX..i.i.  ",
"  Q.Q.d.xXxXxXxXxX}.T.R.E C ! R.~.9.9 + + + O c <.-XqXuXuXeXeXuXeX2X,XOX+Xf w r i b a +.f m.F.[.Y.R.E C h.R./.lXxXxXxXxXn.Y i.  ",
"  ^.R.D.xXxXxXxXxXzX~.T.! V V R.Y.z + + o o O c m.-X5XqXwXwXqXwXeXeX1X:X+X$.w 0 t h f c ,. .I.x.Y.Q V E R.Q.pXxXxXxXxXxX[.Y i.  ",
"  /.l.4XxXxXxXxXxXxXlXQ.R.Q V C T.q O o X X 5 [ 3.OX-X:X8X1X1X1XwXwX1X:X4.$.f $ 0 x p s M.3.' j.8.V C R.T.}.xXxXxXxXxXxXrXU 7.  ",
"Y.(.i.rXxXxXxXxXxXxXxX0XQ.R.C V Q 9.+ X X . 8 o.F.OX-X:X,X1X1XqX1X1X1X:X>X,.#.a 4 l } c +.-X=.f.C V h.T.{.xXxXxXxXxXxXxXaXO.6.6.",
"Q.(.p.aXxXxXxXxXxXxXxXxX{.Q.h.Z V Y 2 X # 5 p $.+XOX:X:X:XqX1X1X2X,X,X,X:X>X<.[ 6 g b 0.[ C.`.R V ! R.~.zXxXxXxXxXxXxXxXlX..Y 6.",
"Q.(.s.zXxXxXxXxXxXxXxXxXzX~.Y.! V Z 5 X 7 7 0.%X6X5X5X:X,X8XqXqXqXwXwXeXqX8X$X&XM j x a c m.2.* E Q.T.lXxXxXxXxXxXxXxXxXxXd.Y 6.",
"Q. Xz.xXxXxXxXxXxXxXxXxXxXpX!.R.E V @ o q q m 0.&X=XjXhXhXhXaXwXwXqXqXhXhX=Xu.y 4 7 x >.{ #.X.R R.!.0XxXxXxXxXxXxXxXxXxXxXd.Y 6.",
"^. Xz.zXxXxXxXxXxXxXxXxXxXxX}.Q.R.C @ 8  .n O.s l l k N U.=XjXhXrXqX8X&Xw.l 4 y k i h J.,.{ ` f.Y.{.xXxXxXxXxXxXxXxXxXxXxXn.6.i.",
"/..Xv.xXxXxXxXxXxXxXxXxXxXxXxX{.Y.h.A ]  .[ +.9.v k y y 4 4 v r.3X-XM.[ v r 6 p a q h r.H.#.*.j.{.lXxXxXxXxXxXxXxXxXxXxXxXA.f.i.",
"/..Xv.xXxXxXxXxXxXxXxXxXxXxXxXaX~.Y.h.yX3X%X#X%X$X$X%X&Xy.e.e.r.V.>X+X@X$XgXgX=X=XN g M N n O.W.pXxXxXxXxXxXxXxXxXxXxXxXxXS.f.i.",
"/.oXc.zXxXxXxXxXxXbXxXxXxXxXxXxXsXT.Y.`.N.u.u.N B B B B u.U.*X*X*X*X*Xu.N y u + 3 9 w r O 1 %.0XxXxXxXxXxXxXxXxXxXxXxXxXxXc.R.i.",
"T..Xx.fXxXxXxXxXxXxXxXxXxXxXxXxXxX}.Y.E.$.o 2 2 + 3 3 + 3 2 2 2 3 3 3 3 + 3 + 3 + 3 t w . d S.dXxXxXxXxXbXxXxXxXxXxXxXxXzXv.Y.i.",
"Y..Xk.uXxXxXxXxXxXxXxXxXxXxXxXxXxXzX{.T._.6 o 2 3 + 3 + 2 2 2 2 2 O + + + + + + 2 2 r 7 q :.aXxXxXxXxXxXxXxXxXxXxXxXxXxXdXx.T.W ",
"  .XY.5XxXxXxXxXxXxXxXxXxXxXxXxXxXxXpX!.E.n.# + + 3 + 3 2 2 2 2 . 8 $ O + u 3 + 2 2 8 8 c 5XxXxXxXxXxXxXxXxXxXxXxXxXcXxXyXk.T.  ",
"  XX/.K.xXxXxXxXxXxXxXxXxXxXbXxXxXxXxX0XT.k.o.. O 3 3 2 2 2 2 . m.$X$X% + 3 3 + O o # z B.zXcXxXxXxXxXxXcXxXxXxXxXxXxXxX9XR.Y.  ",
"  /.(.n.xXxXxXxXxXxXxXxXxXxXxXxXxXxXxXxX}.Y.|.y.# . + + 2 2 X d o./ d m.. + + + . s >.b.uXxXxXxXxXxXxXxXxXxXxXxXxXxXxXxX_.R.k.  ",
"  Y.(.p.aXxXxXxXxXxXxXxXxXxXxXxXxXxXxXxXxX~.Y.I.6Xe.4 . . . a V.>.<X2XOX@X# $ b #X2X<XeXxXxXxXfXxXxXxXxXxXxXxXxXxXxXxXzXc.R.i.  ",
"    /.h.5XxXxXxXxXxXxXxXxXxXxXxXxXxXxXxXxXlX!.A.M.J.6X@Xq.0.P.V.8XfXbXdXV.#X%XOX<XiX5XdXxXxXxXcXxXxXxXxXxXxXxXxXxXxXxXpXf.R.    ",
"    T.Y.n.xXxXxXxXxXxXxXxXxXxXxXxXxXxXxXxXxX0Xc.V.M.,.M.<.#. .| C.8XuXH.>.1.4.>XeXwX8XcXxXxXxXxXxXxXxXxXxXxXxXxXxXxXxX`.f.f.    ",
"    j.T.p.uXxXxXxXxXxXxXxXxXxXxXxXxXxXxXxXxXcXn.0.F.J.J.F.F.<.>.>.>.5.>X5.>X<XiXfX8XdXfXxXxXxXxXxXxXxXxXxXxXxXxXxXxXzXs.8.%.    ",
"      T.j.K.xXxXxXxXxXfXxXxXxXxXxXxXxXxXxXrXN.t x N.J.F.J.H.J.OX>X>XeXcXxXhXuXfX+X+XxXxXxXxXxXxXxXxXxXxXxXxXxXxXxXxX4Xi.i.      ",
"      j.j.a.uXxXzXaX;X`.zXxXxXxXxXxXxXxX6Xl i 5 h q.I.J.V.P.&X%XgXjXgX$XJ.3.>X3Xs b rXfXxXxXxXxXxXxXxXzX:.qXuXxXxXzXs.6.6.      ",
"        R.7.K.xXqXD > L &.zXxXxXxXxXxXxXr.t t 4 t b r.V.M.o.[ +.[ | N.@XH.,X:Xo. .w y.6XzXxXxXxXxXxXxXG.& < ; _ Z.[.Y 6.        ",
"        f.f.%.rX( X.*.Z.H yXxXxXxXxXxXxXt.i t r 2 j w.r.B.b.o.#.m.V.M.,.4.wXb./ c e e c uXxXxXxXxXxX9XZ.*.= H ' ;Xp.Y 6.        ",
"          f.7.d.:.> > H.yXL 9XxXxXxXxXxXB.l t r + j j N y.B.b.$.o.$.>.5.2XM.d #.p 6 s s qXxXxXxXxXeXF X.uX=.; G.S.Y 6.          ",
"          i.i.Y K.:.9X'.S H K aXxXxXxXxXqXN w 3 i 7 t h M y.J.F.3.OX1XeX,. . .p p #  .c tXxXxXxXuXJ ; ` yXzX*.[...W U           ",
"            i.6...4X*.A A F < 9XyXxXxXxXfXV.y 0 q a 5 w j k e.P.#X3X#X<.$.e.a w i q d +.uXxXxXuXK K 4XG H Z.uXa.Y W             ",
"              i.Y ..G.^ _ _ 4X=.S ;XxXxXxXuXb i 8 h v h w m m h N w.@.n l w x 6 1 s a J.zXxX5XD ) 9XxXdX' Z.s.Y W               ",
"              Y 6.Y ..Z., uX1.= ` , -XzXcXxX7XP.y.j p b j 5 4 r 8 u g / a w h f a / c rXdXH., L D 5XxXxXuXz.Y i.I               ",
"                Y 6...%.4X*.> S *.;XX.H ;XfXxX8Xy.p b r t e w i 1 % $ >.d t e a { #.OX:X' , G.yX_ H '.lXz.W i.T                 ",
"                  W 7.Y %.Z.F ) yX-X; ' , Z.;XzXdXtX8X3X3X3X3XOXOXOXOX:X-XOX+X3X-XOXqXJ D ' aXxXaXL G.z.i.f.T                   ",
"                    Y f.i.p.D.*.9XL ; ) 9X:.= Z.:.uXxXxXfXxXfXxXfXcXcXfXxXaXwXG.F S _ 9X> < *.2.dX4Xp.i.g.T                     ",
"                      Y f.j.g.S.Z.< ` G.uXS & ` S 9XfX:.:.;X].4X-X].].=.-.X.S G.> G.; 1.].; F *.`.i.f.f.I                       ",
"                          h.R.R.x.S.` G.G.S > = -.cXxX2.J :.S :.: ) X.*.& J < 9X_ L &.` yX*._.v.g.h.i.                          ",
"                            7.Y.T.R.c.4X*.) F ; yXxXxXG.D G :.5X= , yX'.- < & '.9X- S G.0Xc.g.j.j.Y                             ",
"                                f.T.T.j.x.`.G.X.aXxXxXrX= S pXwX; ] Z.uXA ] : _ 9XZ._.v.g.f.j.i.                                ",
"                                  U f.R.j.f.i.z.`.0XaXqX( X.zX-XS H ^ qX*.`.[._.c.g.g.j.j.f.I                                   ",
"                                        i.f.f.i.W W a.p.z.A._.`.S.S.A.c.s.a.i.i.f.j.h.6.                                        ",
"                                            T W 7.6.6.Y Y Y U Y Y Y W i.f.f.f.f.6.T                                             ",
"                                                    I U Y Y Y 6.W 6.W Y Y I                                                     "
};
