/* XPM */
static char *f7edc01b0d034f7d9e3f475af47fe975[] = {
/* columns rows colors chars-per-pixel */
"16 16 194 2 ",
"   c None",
".  c #313D28",
"X  c #38452C",
"o  c #38442D",
"O  c #38472C",
"+  c #3A462F",
"@  c #365226",
"#  c #3C512E",
"$  c #3C4A30",
"%  c #445B2F",
"&  c #445731",
"*  c #445B31",
"=  c #496E2A",
"-  c #496630",
";  c #4A6432",
":  c #4A6633",
">  c #4D6C31",
",  c #4F6F33",
"<  c #4D6538",
"1  c #506E36",
"2  c #526D39",
"3  c #526C3A",
"4  c #527533",
"5  c #537236",
"6  c #547735",
"7  c #547436",
"8  c #567E34",
"9  c #577E34",
"0  c #577E35",
"q  c #617E44",
"w  c #2B9829",
"e  c #389734",
"r  c #3FAB35",
"t  c #3CB539",
"y  c #588337",
"u  c #58823A",
"i  c #5C843A",
"p  c #5D873A",
"a  c #5E813F",
"s  c #5E9E3E",
"d  c #609239",
"f  c #63953A",
"g  c #65963A",
"h  c #67963D",
"j  c #699B3E",
"k  c #44AF39",
"l  c #42B93D",
"z  c #5F9F45",
"x  c #658F41",
"c  c #658C42",
"v  c #688C46",
"b  c #648149",
"n  c #6D9C42",
"m  c #6D9F42",
"M  c #6C9944",
"N  c #6F924D",
"B  c #709F45",
"V  c #49A441",
"C  c #4EAC43",
"Z  c #4BAC44",
"A  c #4BB244",
"S  c #4EB145",
"D  c #4EB147",
"F  c #4FB547",
"G  c #4FB746",
"H  c #4FBA48",
"J  c #53B144",
"K  c #57B047",
"L  c #5BB648",
"P  c #5FBC49",
"I  c #6FA440",
"U  c #6BA046",
"Y  c #71A543",
"T  c #73A444",
"R  c #74AA45",
"E  c #77AF44",
"W  c #77AD47",
"Q  c #77AE47",
"!  c #77A94A",
"~  c #7CAD4B",
"^  c #78A84C",
"/  c #7BA94F",
"(  c #7BAB4E",
")  c #60B749",
"_  c #61B74A",
"`  c #66BA4B",
"'  c #67BE4C",
"]  c #73B147",
"[  c #79B444",
"{  c #7EBB45",
"}  c #75BD4F",
"|  c #54C54D",
" . c #54C84E",
".. c #5EC94F",
"X. c #54CD51",
"o. c #56CE50",
"O. c #56D353",
"+. c #59D553",
"@. c #5EDA55",
"#. c #5BDE56",
"$. c #5EDC55",
"%. c #65C34D",
"&. c #60C54E",
"*. c #66CC4E",
"=. c #71C64F",
"-. c #70C850",
";. c #72C951",
":. c #73CA51",
">. c #71CD52",
",. c #71CF53",
"<. c #61D352",
"1. c #63D253",
"2. c #67D050",
"3. c #67D051",
"4. c #68D253",
"5. c #6ED053",
"6. c #6BD755",
"7. c #6CDB57",
"8. c #64DE58",
"9. c #71D153",
"0. c #71D354",
"q. c #76D254",
"w. c #75DD57",
"e. c #7DDA57",
"r. c #5CE056",
"t. c #81BE48",
"y. c #86BF4F",
"u. c #80B351",
"i. c #86BD51",
"p. c #87BD55",
"a. c #87C74B",
"s. c #87C34F",
"d. c #88C84C",
"f. c #8BCB4F",
"g. c #8FD44D",
"h. c #90D34F",
"j. c #88C450",
"k. c #87CA55",
"l. c #8CCA50",
"z. c #8CC953",
"x. c #8FCB55",
"c. c #8EC55A",
"v. c #94CE59",
"b. c #85D456",
"n. c #89D457",
"m. c #84DD59",
"M. c #8BD858",
"N. c #8CD858",
"B. c #8DDB59",
"V. c #89DE5A",
"C. c #8BDF5B",
"Z. c #8CDF5B",
"A. c #92D353",
"S. c #91D451",
"D. c #93D752",
"F. c #93D156",
"G. c #93D457",
"H. c #95D258",
"J. c #92DF5B",
"K. c #99D95B",
"L. c #9CD95A",
"P. c #9ADC59",
"I. c #9BDD5D",
"U. c #8AE05B",
"Y. c #8BE05B",
"T. c #8EE15C",
"R. c #8FE15C",
"E. c #9AE055",
"W. c #93E35D",
"Q. c #94E05C",
"!. c #96E15D",
"~. c #9EE05B",
"^. c #9FE35F",
"/. c #9FE55E",
"(. c #9BE85F",
"). c #A2E15E",
"_. c #A0E55F",
"`. c #A0E75F",
"'. c #A1E960",
"]. c #A3E860",
"[. c #A2E960",
"{. c #A3E961",
"}. c #A3EA61",
"|. c #A3EB61",
" X c #A4E961",
".X c #A4EA61",
"XX c #A5EA61",
"oX c #A4EB61",
"OX c #A5EB61",
"+X c #A4EC61",
"@X c #A5EC61",
"#X c #A5EC62",
"$X c #A6EC62",
"%X c #A6ED62",
/* pixels */
"          r.8.7.6.<.X.          ",
"      #.w.!.[.[.XX_.J.0.O.      ",
"    $.U._.c.F.s.~ H.^.XXY.@.    ",
"  +.V.XX^ 1 y.t.p M L.P.$XC.o.  ",
"  0.`.I.< % t.h.j i ~ ).XX[.,.  ",
" .5.4.} O > S.E.a.6 4 I b.3.,.A ",
"..U.t e . 9 f.D.g.g - f k l W.K ",
"4.XXe.w @ x p.F.S.( 5 p k m.XXL ",
"6.$X|.*.s v b N / q 3 u :.$X$X%.",
"<.[.$X(._ # + $ & o O y _.$X`...",
"| W.$X$XR.z ; > ] 7 h F.$X$X!.J ",
"  =.$X$X_.U E R j.d.f.XX%X$X-.  ",
"  Z n.$Xi.* x j ~ [ 9 x.$XN.V   ",
"    C M.K.5 : b n 9 = z.Z.J     ",
"      H q.k.~ M Y Y ] :.A       ",
"          A L ` ' P F           "
};
